<svg width="28" height="28" viewBox="0 0 28 28" fill="none" xmlns="http://www.w3.org/2000/svg">
<path d="M16.7945 24.4321C16.7945 25.8503 15.617 27 14.1644 27C12.7118 27 11.5342 25.8503 11.5342 24.4321C11.5342 23.0139 12.7118 21.8642 14.1644 21.8642C15.617 21.8642 16.7945 23.0139 16.7945 24.4321Z" fill="#80A9EA"/>
<path d="M26 19.2963C26 20.7145 24.8225 21.8642 23.3699 21.8642C21.9173 21.8642 20.7397 20.7145 20.7397 19.2963C20.7397 17.8781 21.9173 16.7284 23.3699 16.7284C24.8225 16.7284 26 17.8781 26 19.2963Z" fill="#80A9EA"/>
<path d="M17.3391 5.64201C16.7528 5.31153 16.0142 5.50923 15.4195 5.8251C15.0465 6.02324 14.6189 6.1358 14.1644 6.1358C12.7118 6.1358 11.5342 4.98611 11.5342 3.5679C11.5342 2.14969 12.7118 1 14.1644 1C15.617 1 16.7945 2.14969 16.7945 3.5679C16.7945 3.73608 16.8757 3.89821 17.0249 3.9823L21.0177 6.23304C21.4772 6.49201 22.0437 6.42558 22.5476 6.26378C22.8063 6.18073 23.0827 6.1358 23.3699 6.1358C24.8225 6.1358 26 7.28549 26 8.7037C26 10.1219 24.8225 11.2716 23.3699 11.2716C23.0483 11.2716 22.7403 11.2153 22.4555 11.1122C21.9318 10.9226 21.3328 10.8346 20.8491 11.1073L17.4866 13.0027C16.9775 13.2897 16.7945 13.9075 16.7945 14.4815C16.7945 15.8997 15.617 17.0494 14.1644 17.0494C12.7118 17.0494 11.5342 15.8997 11.5342 14.4815C11.5342 14.0675 11.3748 13.6417 11.0076 13.4347L6.6537 10.9805C6.39743 10.836 6.08429 10.8632 5.82051 10.9942C5.523 11.1418 5.28767 11.4185 5.28767 11.7443V15.814C5.28767 16.3998 5.72036 16.8864 6.20131 17.2367C6.84407 17.7049 7.26027 18.4531 7.26027 19.2963C7.26027 20.7145 6.08272 21.8642 4.63014 21.8642C3.17755 21.8642 2 20.7145 2 19.2963C2 18.4531 2.4162 17.7049 3.05896 17.2367C3.53991 16.8864 3.9726 16.3998 3.9726 15.814V12.186C3.9726 11.6002 3.53991 11.1136 3.05896 10.7633C2.4162 10.2951 2 9.54685 2 8.7037C2 7.28549 3.17755 6.1358 4.63014 6.1358C6.08272 6.1358 7.26027 7.28549 7.26027 8.7037C7.26027 9.29899 7.44461 9.94373 7.97265 10.2414L11.4138 12.1811C11.9319 12.4731 12.5771 12.3518 13.1267 12.1212C13.445 11.9876 13.7959 11.9136 14.1644 11.9136C14.4636 11.9136 14.7511 11.9624 15.0191 12.0522C15.5301 12.2236 16.1079 12.2973 16.5757 12.0336L20.0954 10.0496C20.5615 9.78681 20.7397 9.22921 20.7397 8.7037C20.7397 8.10455 20.5552 7.45488 20.0237 7.15531L17.3391 5.64201Z" fill="url(#paint0_linear_179_11767)"/>
<defs>
<linearGradient id="paint0_linear_179_11767" x1="14.1644" y1="3.24691" x2="3.84356" y2="20.1605" gradientUnits="userSpaceOnUse">
<stop stop-color="#1052F0"/>
<stop offset="1" stop-color="#0DBB97"/>
</linearGradient>
</defs>
</svg>
